<svg id="reg" enable-background="new 0 0 24 24" height="512" viewBox="0 0 24 24" width="512" xmlns="http://www.w3.org/2000/svg"><path d="m18.75 22.153-1.133-3.282c-.441.205-1.279.382-1.898.402h-.089c-1.796 0-2.148-1.313-2.164-2.272v-7.16h4.725v-3.482h-4.707v-5.859h-3.448c-.057 0-.156.049-.17.171-.194 1.795-1.059 4.941-4.618 6.2v2.97h2.369v7.515c0 2.544 1.9 6.144 6.893 6.144l-.011-.002h.175c1.723-.029 3.649-.736 4.076-1.345z" fill="#33506c"/><path d="m19.117 22.371c.135-.195.169-.442.093-.667l-1.092-3.215c-.141-.418-.622-.632-1.031-.437-.568.269-2.078.535-2.542.056-.709-.728-.279-3.61-.36-7.474h3.778c.414 0 .75-.336.75-.75v-3.41c0-.414-.336-.75-.75-.75h-3.782v-4.99c0-.414-.336-.75-.75-.75h-3.32c-.771 0-.92.759-1.051 1.429-.258 1.31-.737 3.75-3.813 4.856-.299.108-.497.39-.497.707v2.909c0 .414.336.75.75.75h1.531v6.612c0 7.746 10.169 7.902 12.086 5.124zm-10.586-5.124v-7.362c0-.414-.336-.75-.75-.75h-1.531v-1.649c2.82-1.214 3.777-3.301 4.324-6.001h2.106v4.99c0 .414.336.75.75.75h3.782v1.91h-3.801c-.427 0-.765.356-.749.779.19 4.964-.552 7.846.808 9.241.847.871 2.288.819 3.469.527l.691 2.035c-3.023 1.825-9.099.59-9.099-4.47z"/></svg>